<?xml version="1.0" encoding="UTF-8" standalone="no"?>
<!-- Created with Inkscape (http://www.inkscape.org/) -->
<svg
   xmlns:dc="http://purl.org/dc/elements/1.1/"
   xmlns:cc="http://web.resource.org/cc/"
   xmlns:rdf="http://www.w3.org/1999/02/22-rdf-syntax-ns#"
   xmlns:svg="http://www.w3.org/2000/svg"
   xmlns="http://www.w3.org/2000/svg"
   xmlns:xlink="http://www.w3.org/1999/xlink"
   xmlns:sodipodi="http://sodipodi.sourceforge.net/DTD/sodipodi-0.dtd"
   xmlns:inkscape="http://www.inkscape.org/namespaces/inkscape"
   id="svg2"
   sodipodi:version="0.32"
   inkscape:version="0.44"
   width="859.12433"
   height="301.75919"
   version="1.0"
   sodipodi:docbase="/home/1/vbregier"
   sodipodi:docname="fvwm-logo.svg">
  <metadata
     id="metadata7">
    <rdf:RDF>
      <cc:Work
         rdf:about="">
        <dc:format>image/svg+xml</dc:format>
        <dc:type
           rdf:resource="http://purl.org/dc/dcmitype/StillImage" />
      </cc:Work>
    </rdf:RDF>
  </metadata>
  <defs
     id="defs5">
    <linearGradient
       id="linearGradient3667">
      <stop
         style="stop-color:#021956;stop-opacity:1;"
         offset="0"
         id="stop3669" />
      <stop
         id="stop3738"
         offset="1"
         style="stop-color:#2e9fce;stop-opacity:1;" />
    </linearGradient>
    <linearGradient
       inkscape:collect="always"
       xlink:href="#linearGradient3667"
       id="linearGradient3675"
       x1="304.9776"
       y1="-136.72267"
       x2="429.56216"
       y2="368.94888"
       gradientUnits="userSpaceOnUse" />
  </defs>
  <sodipodi:namedview
     inkscape:window-height="636"
     inkscape:window-width="881"
     inkscape:pageshadow="2"
     inkscape:pageopacity="0.0"
     guidetolerance="10.0"
     gridtolerance="10.0"
     objecttolerance="10.0"
     borderopacity="1.0"
     bordercolor="#666666"
     pagecolor="#ffffff"
     id="base"
     inkscape:zoom="0.8164534"
     inkscape:cx="441.20914"
     inkscape:cy="213.52409"
     inkscape:window-x="234"
     inkscape:window-y="232"
     inkscape:current-layer="svg2" />
  <path
     style="fill:url(#linearGradient3675);fill-opacity:1.0;stroke:black;stroke-opacity:1;stroke-linejoin:miter;stroke-width:3;stroke-miterlimit:4;stroke-dasharray:none"
     d="M 184.29329,219.71169 L 184.29329,137.79114 L 181.54329,137.2445 C 180.03079,136.94385 175.86829,136.21227 172.29329,135.61877 C 147.87546,131.56506 118.99059,116.57247 95.786885,95.908382 C 90.283375,91.007222 74.161555,74.877566 59.960635,60.064706 C 26.163396,24.811096 16.828119,16.652736 4.3544721,11.468916 C -0.38952686,9.4973962 -0.52776086,9.3268362 0.55231914,6.7776262 C 1.1687761,5.3226562 1.9548331,3.7875862 2.2991121,3.3663362 C 3.2089531,2.2531062 23.246785,9.9144562 31.858366,14.668156 C 42.7833,20.698856 51.192176,27.025896 78.283205,49.599346 C 106.88833,73.434406 116.41113,80.631726 128.39414,87.473136 C 169.13395,110.73251 221.59579,112.54913 263.79329,92.161652 C 275.40252,86.552726 286.83467,78.806816 313.02338,58.805586 C 338.40245,39.422706 349.1921,32.477636 367.79329,23.551346 C 418.10552,-0.59235391 478.18853,-6.4629239 534.29329,7.2830362 C 565.63681,14.962366 594.76529,29.070216 624.50806,50.976926 L 634.22284,58.132236 L 634.25806,78.382236 C 634.27744,89.519736 634.04098,98.632232 633.73261,98.632232 C 633.42423,98.632232 628.81173,95.110412 623.48261,90.805962 C 599.48955,71.426256 584.20909,61.308216 565.79329,52.606696 C 545.23618,42.893386 526.06392,37.167296 503.79329,34.089446 C 485.16897,31.515526 449.16151,32.453906 432.29329,35.952786 C 402.60659,42.110536 381.12506,50.612796 357.95473,65.375536 C 354.19353,67.771946 340.24353,77.923596 326.95473,87.934756 C 297.9978,109.74957 294.34153,112.19154 278.53177,120.27581 C 261.28251,129.09618 242.14816,134.79985 222.04329,137.11423 L 216.29329,137.77614 L 216.29329,170.70419 L 216.29329,203.63223 L 218.54329,203.62368 C 219.78079,203.61897 225.96829,203.15828 232.29329,202.59992 C 255.3679,200.56294 274.91192,196.40132 297.79329,188.65266 C 306.04329,185.85884 313.188,183.47381 313.67042,183.35261 C 314.15284,183.2314 315.19031,186.22521 315.97592,190.00552 C 316.76153,193.78583 318.71942,200.48232 320.32678,204.88662 C 321.93415,209.29092 323.03401,213.24273 322.77091,213.66843 C 321.92712,215.03372 292.2294,224.36148 278.79329,227.48138 C 260.33072,231.76843 232.34363,235.58231 219.04329,235.62368 L 216.29329,235.63223 L 216.29329,268.63223 L 216.29329,301.63223 L 200.29329,301.63223 L 184.29329,301.63223 L 184.29329,219.71169 z M 377.77748,285.33822 C 338.6248,220.91593 332.32742,209.22853 327.76464,192.51868 C 324.6173,180.99247 323.37242,163.1599 323.32606,128.93723 L 323.29329,104.74223 L 336.23855,94.523152 C 343.35844,88.902666 350.50575,83.467086 352.12146,82.444096 L 355.0591,80.584106 L 355.52467,126.85817 C 356.04026,178.10421 356.28992,180.43808 362.91093,195.90708 C 367.08731,205.66458 383.00018,233.63223 384.37556,233.63223 C 385.0527,233.63223 396.83617,209.33489 403.68174,193.8232 C 409.19258,181.33592 414.82397,164.29876 417.4621,152.13223 C 419.18224,144.19929 419.48275,137.58943 419.99672,96.382202 L 420.57983,49.632166 L 424.18656,48.705646 C 428.27305,47.655886 441.66385,45.072096 448.04329,44.102436 L 452.29329,43.456436 L 452.28297,85.794336 C 452.26339,166.17185 451.76978,168.09868 407.39153,261.03216 C 397.4375,281.87711 389.29329,299.28806 389.29329,299.72314 C 389.29329,303.09379 386.28346,299.33408 377.77748,285.33822 z M 504.84353,299.60281 C 503.92236,296.46179 487.35866,244.0163 482.26246,228.10455 C 465.08355,174.46729 463.29329,161.70895 463.29329,92.920242 L 463.29329,42.632236 L 472.54329,42.639346 C 477.63079,42.643256 484.79978,42.930426 488.47438,43.277516 L 495.15547,43.908576 L 495.55042,97.520402 C 495.97483,155.1309 496.11618,156.97926 501.86682,180.11829 C 505.60185,195.14708 511.69776,215.63223 512.43494,215.63223 C 512.7924,215.63223 521.07332,199.79259 530.83699,180.43302 L 548.58911,145.23381 L 568.44368,184.93302 C 579.36369,206.76759 588.47689,224.63223 588.69522,224.63223 C 588.91355,224.63223 591.12533,219.11142 593.61029,212.36377 C 601.3455,191.35953 601.55817,189.46065 602.21423,135.53887 L 602.79329,87.945516 L 618.54329,100.45155 L 634.29329,112.95759 L 634.29245,142.54491 C 634.29087,198.68831 633.48844,202.11808 604.03265,271.88223 C 597.3563,287.69473 591.64374,300.63223 591.33806,300.63223 C 591.03238,300.63223 581.27939,281.62008 569.66473,258.38301 L 548.54718,216.1338 L 527.05763,259.10359 C 509.07215,295.06677 505.44994,301.67054 504.84353,299.60281 z M 674.62072,282.38223 C 659.34036,259.31132 652.21641,245.57681 648.55657,232.13223 L 645.8344,222.13223 L 645.52315,144.79806 C 645.2697,81.826306 645.45161,67.610956 646.50259,68.255736 C 647.21248,68.691246 671.10367,87.668486 699.59413,110.42738 C 728.08459,133.18627 751.93459,151.59461 752.59413,151.3348 C 753.25367,151.07498 777.19329,132.14276 805.79329,109.26319 C 834.39329,86.383636 858.16339,67.656836 858.61573,67.648106 C 859.06807,67.639376 859.25379,101.49473 859.02844,142.88223 C 858.64041,214.1458 858.51075,218.61016 856.58082,227.15391 C 854.29418,237.27682 849.70261,249.39933 845.03673,257.63223 C 843.32236,260.65723 836.12906,271.82329 829.05163,282.4457 L 816.18358,301.75917 L 813.36812,299.9457 C 811.81962,298.94829 805.83497,295.00307 800.06892,291.17853 L 789.58518,284.22483 L 802.59752,264.67853 C 809.7543,253.92807 817.36363,241.41257 819.50713,236.86632 C 826.04531,222.99919 826.46345,219.69407 827.00086,177.63223 C 827.26438,157.00723 827.32548,138.62065 827.13664,136.77316 L 826.79329,133.41408 L 789.79329,163.02227 C 769.44329,179.30678 752.34329,192.60484 751.79329,192.57352 C 751.24329,192.5422 734.36829,179.3606 714.29329,163.28108 L 677.79329,134.04559 L 677.5177,173.08891 C 677.19879,218.26921 677.67386,222.5152 684.6833,237.13223 C 687.05702,242.08223 694.37722,254.23223 700.95042,264.13223 C 707.52362,274.03223 713.20294,282.63257 713.57113,283.24409 C 713.97661,283.91754 709.12758,287.76196 701.27328,292.99409 C 694.14127,297.74507 688.09549,301.63223 687.8382,301.63223 C 687.58092,301.63223 681.63305,292.96973 674.62072,282.38223 z "
     id="path2762"
     inkscape:export-filename="/home/1/vbregier/fvwm-logo.png"
     inkscape:export-xdpi="6.5615239"
     inkscape:export-ydpi="6.5615239" />
</svg>
